<svg id="Layer_1" xmlns="http://www.w3.org/2000/svg" viewBox="0 0 542 523"><style>.st0{fill:#fff}</style><path class="st0" d="M152.8 146.7c-4.4-3.9-11.1-3.5-15 .9s-3.5 11.1.9 15l29.1 25.6c2 1.8 4.5 2.7 7 2.7 3 0 5.9-1.2 8-3.6 3.9-4.4 3.5-11.1-.9-15l-29.1-25.6zm54.7-.1c2.1 2.4 5 3.6 8 3.6 2.5 0 5-.9 7-2.7 4.4-3.9 4.8-10.6.9-15l-25.6-29.1c-3.9-4.4-10.6-4.8-15-.9s-4.8 10.6-.9 15l25.6 29.1zm44.2 32.9c5.7 1.5 11.5-1.9 13-7.6 1.5-5.7-1.9-11.5-7.6-13-17.6-4.7-36.6.4-49.5 13.3-12.4 12.4-17.6 30-13.8 47.1 1.1 5 5.5 8.4 10.4 8.4.7 0 1.5-.1 2.3-.2 5.7-1.2 9.4-6.9 8.2-12.7-2.2-10 .9-20.3 8.1-27.5 7.5-7.6 18.6-10.5 28.9-7.8zm-97.8-93.9c2.1 2.4 5 3.6 8 3.6 2.5 0 5-.9 7-2.7 4.4-3.9 4.8-10.6.9-15L140.3 38c-3.9-4.4-10.6-4.8-15-.9s-4.8 10.6-.9 15l29.5 33.5zM73.3 105l33.5 29.6c2 1.8 4.5 2.7 7 2.7 3 0 5.9-1.2 8-3.6 3.9-4.4 3.5-11.1-.9-15L87.4 89.1c-4.4-3.9-11.1-3.5-15 .9-4 4.4-3.5 11.1.9 15zm225.9 47.1L209.5 28.9c-3.5-4.8-10.1-5.8-14.9-2.3-4.8 3.5-5.8 10.1-2.3 14.9l89.5 122.9c17.3 24.6 24.3 59.8 1.1 83-23.2 23.2-58.4 16.1-83-1.1L77 156.7c-4.8-3.5-11.4-2.4-14.9 2.3-3.5 4.8-2.4 11.4 2.3 14.9l123 89.6.1.1c17 11.9 38.1 19.9 59 19.9 18.3 0 36.5-6.1 51.4-21.1 32-31.9 23.7-78.4 1.3-110.3zm-84.5 153.6c-5.9 0-10.6 4.8-10.6 10.6V476c0 5.9 4.8 10.6 10.6 10.6s10.6-4.8 10.6-10.6V316.4c.1-5.9-4.7-10.7-10.6-10.7zm149.5 38.8c47.3-10.6 82.8-52.9 82.8-103.3 0-58.4-47.5-105.9-105.9-105.9-5.9 0-10.6 4.8-10.6 10.6s4.8 10.6 10.6 10.6c46.6 0 84.6 37.9 84.6 84.6s-37.9 84.6-84.6 84.6h-79.9c-5.9 0-10.6 4.8-10.6 10.6s4.8 10.6 10.6 10.6h80.7l60.9 133.4c1.8 3.9 5.7 6.2 9.7 6.2 1.5 0 3-.3 4.4-1 5.3-2.4 7.7-8.8 5.3-14.1l-58-126.9z"/></svg>