<?xml version="1.0" encoding="utf-8"?>
<!-- Generator: Adobe Illustrator 21.1.0, SVG Export Plug-In . SVG Version: 6.00 Build 0)  -->
<svg version="1.1" id="Layer_1" xmlns="http://www.w3.org/2000/svg" xmlns:xlink="http://www.w3.org/1999/xlink" x="0px" y="0px"
	 viewBox="0 0 542 523" style="enable-background:new 0 0 542 523;" xml:space="preserve">
<style type="text/css">
	.st0{fill:#FFFFFF;}
</style>
<path class="st0" d="M152.8,146.7c-4.4-3.9-11.1-3.5-15,0.9s-3.5,11.1,0.9,15l29.1,25.6c2,1.8,4.5,2.7,7,2.7c3,0,5.9-1.2,8-3.6
	c3.9-4.4,3.5-11.1-0.9-15L152.8,146.7z M207.5,146.6c2.1,2.4,5,3.6,8,3.6c2.5,0,5-0.9,7-2.7c4.4-3.9,4.8-10.6,0.9-15l-25.6-29.1
	c-3.9-4.4-10.6-4.8-15-0.9s-4.8,10.6-0.9,15L207.5,146.6z M251.7,179.5c5.7,1.5,11.5-1.9,13-7.6c1.5-5.7-1.9-11.5-7.6-13
	c-17.6-4.7-36.6,0.4-49.5,13.3c-12.4,12.4-17.6,30-13.8,47.1c1.1,5,5.5,8.4,10.4,8.4c0.7,0,1.5-0.1,2.3-0.2
	c5.7-1.2,9.4-6.9,8.2-12.7c-2.2-10,0.9-20.3,8.1-27.5C230.3,179.7,241.4,176.8,251.7,179.5z M153.9,85.6c2.1,2.4,5,3.6,8,3.6
	c2.5,0,5-0.9,7-2.7c4.4-3.9,4.8-10.6,0.9-15L140.3,38c-3.9-4.4-10.6-4.8-15-0.9c-4.4,3.9-4.8,10.6-0.9,15L153.9,85.6z M73.3,105
	l33.5,29.6c2,1.8,4.5,2.7,7,2.7c3,0,5.9-1.2,8-3.6c3.9-4.4,3.5-11.1-0.9-15L87.4,89.1c-4.4-3.9-11.1-3.5-15,0.9
	C68.4,94.4,68.9,101.1,73.3,105z M299.2,152.1L209.5,28.9c-3.5-4.8-10.1-5.8-14.9-2.3c-4.8,3.5-5.8,10.1-2.3,14.9l89.5,122.9
	c17.3,24.6,24.3,59.8,1.1,83c-23.2,23.2-58.4,16.1-83-1.1L77,156.7c-4.8-3.5-11.4-2.4-14.9,2.3c-3.5,4.8-2.4,11.4,2.3,14.9l123,89.6
	l0.1,0.1c17,11.9,38.1,19.9,59,19.9c18.3,0,36.5-6.1,51.4-21.1C329.9,230.5,321.6,184,299.2,152.1z M214.7,305.7
	c-5.9,0-10.6,4.8-10.6,10.6V476c0,5.9,4.8,10.6,10.6,10.6s10.6-4.8,10.6-10.6V316.4C225.4,310.5,220.6,305.7,214.7,305.7z
	 M364.2,344.5c47.3-10.6,82.8-52.9,82.8-103.3c0-58.4-47.5-105.9-105.9-105.9c-5.9,0-10.6,4.8-10.6,10.6s4.8,10.6,10.6,10.6
	c46.6,0,84.6,37.9,84.6,84.6s-37.9,84.6-84.6,84.6h-79.9c-5.9,0-10.6,4.8-10.6,10.6s4.8,10.6,10.6,10.6h79.9c0.3,0,0.6,0,0.8,0
	l60.9,133.4c1.8,3.9,5.7,6.2,9.7,6.2c1.5,0,3-0.3,4.4-1c5.3-2.4,7.7-8.8,5.3-14.1L364.2,344.5z"/>
</svg>
